# xmcd
#
# Track frame offsets: 
#        150
#        1565
#        17965
#        34940
#        50255
#        63867
#        84900
#        113430
#        134995
#        152432
#        158162
#        178605
#        191677
#        193502
#        208982
#        237050
#        252057
#        264407
#        280285
#
# Disc length: 4467 seconds
#
# Revision: 7
# Processed by: cddbd v1.5.2PL0 Copyright (c) Steve Scherf et al.
# Submitted via: ExactAudioCopy v0.99pb5
#
DISCID=f6117113
DTITLE=Los Amigos Invisibles - The New Sound of the Venezuelan Gozader
DTITLE=a
DYEAR=1998
DGENRE=Latin
TTITLE0=Güelcome
TTITLE1=Ultra-funk
TTITLE2=Mi linda
TTITLE3=Sexy
TTITLE4=Las lycras del avila
TTITLE5=Groupie
TTITLE6=Otra vez
TTITLE7=Cachete a cachete
TTITLE8=Balada de chusy
TTITLE9=Asomacho
TTITLE10=Ponerte en cuatro
TTITLE11=Mango cool
TTITLE12=Nerio compra contestadora
TTITLE13=Quiero desintegrar a tu novio
TTITLE14=El disco anal
TTITLE15=No me pagan
TTITLE16=Cha-chaborro
TTITLE17=Aldemaro en su camaro
TTITLE18=The new sound of the venezuelan gozadera
EXTD=YEAR: 1998
EXTT0=
EXTT1=
EXTT2=
EXTT3=
EXTT4=
EXTT5=
EXTT6=
EXTT7=
EXTT8=
EXTT9=
EXTT10=
EXTT11=
EXTT12=
EXTT13=
EXTT14=
EXTT15=
EXTT16=
EXTT17=
EXTT18=
PLAYORDER=
